<mxfile host="app.diagrams.net" modified="2022-10-31T07:41:34.965Z" agent="5.0 (Macintosh; Intel Mac OS X 10_15_7) AppleWebKit/537.36 (KHTML, like Gecko) Chrome/106.0.0.0 Safari/537.36" etag="MM0EXSY_sqO8qwYsmqtr" version="20.5.1" type="github">
  <diagram id="_VrD7suN4OpV3uT5Q5W5" name="第 1 页">
    <mxGraphModel dx="1298" dy="834" grid="1" gridSize="10" guides="1" tooltips="1" connect="1" arrows="1" fold="1" page="1" pageScale="1" pageWidth="827" pageHeight="1169" math="0" shadow="0">
      <root>
        <mxCell id="0" />
        <mxCell id="1" parent="0" />
        <mxCell id="cjM25EMCI1Wb_jvS7GmR-1" value="AWS" style="rounded=0;whiteSpace=wrap;html=1;fillColor=#f5f5f5;fontColor=#333333;strokeColor=#666666;fontStyle=1;align=left;verticalAlign=top;fontSize=17;" vertex="1" parent="1">
          <mxGeometry x="18" y="320" width="350" height="480" as="geometry" />
        </mxCell>
        <mxCell id="cjM25EMCI1Wb_jvS7GmR-2" value="Aliyun" style="rounded=0;whiteSpace=wrap;html=1;fillColor=#ffe6cc;strokeColor=#d79b00;align=right;verticalAlign=top;fontStyle=1;fontSize=17;" vertex="1" parent="1">
          <mxGeometry x="450" y="320" width="350" height="480" as="geometry" />
        </mxCell>
        <mxCell id="cjM25EMCI1Wb_jvS7GmR-17" style="edgeStyle=orthogonalEdgeStyle;curved=1;rounded=0;orthogonalLoop=1;jettySize=auto;html=1;entryX=0.5;entryY=0;entryDx=0;entryDy=0;startArrow=none;startFill=0;" edge="1" parent="1" source="cjM25EMCI1Wb_jvS7GmR-3" target="cjM25EMCI1Wb_jvS7GmR-4">
          <mxGeometry relative="1" as="geometry" />
        </mxCell>
        <mxCell id="cjM25EMCI1Wb_jvS7GmR-3" value="nginx" style="rounded=0;whiteSpace=wrap;html=1;" vertex="1" parent="1">
          <mxGeometry x="155" y="370" width="120" height="60" as="geometry" />
        </mxCell>
        <mxCell id="cjM25EMCI1Wb_jvS7GmR-7" style="edgeStyle=orthogonalEdgeStyle;rounded=0;orthogonalLoop=1;jettySize=auto;html=1;entryX=1;entryY=0.25;entryDx=0;entryDy=0;curved=1;startArrow=classic;startFill=1;dashed=1;" edge="1" parent="1" source="cjM25EMCI1Wb_jvS7GmR-4" target="cjM25EMCI1Wb_jvS7GmR-6">
          <mxGeometry relative="1" as="geometry" />
        </mxCell>
        <mxCell id="cjM25EMCI1Wb_jvS7GmR-13" value="服务注册发现" style="edgeLabel;html=1;align=center;verticalAlign=middle;resizable=0;points=[];" vertex="1" connectable="0" parent="cjM25EMCI1Wb_jvS7GmR-7">
          <mxGeometry x="0.3379" y="-2" relative="1" as="geometry">
            <mxPoint x="10" y="-10" as="offset" />
          </mxGeometry>
        </mxCell>
        <mxCell id="cjM25EMCI1Wb_jvS7GmR-18" style="edgeStyle=orthogonalEdgeStyle;curved=1;rounded=0;orthogonalLoop=1;jettySize=auto;html=1;entryX=0.5;entryY=0;entryDx=0;entryDy=0;startArrow=none;startFill=0;" edge="1" parent="1" source="cjM25EMCI1Wb_jvS7GmR-4" target="cjM25EMCI1Wb_jvS7GmR-5">
          <mxGeometry relative="1" as="geometry" />
        </mxCell>
        <mxCell id="cjM25EMCI1Wb_jvS7GmR-4" value="big-fish" style="rounded=0;whiteSpace=wrap;html=1;" vertex="1" parent="1">
          <mxGeometry x="220" y="490" width="120" height="60" as="geometry" />
        </mxCell>
        <mxCell id="cjM25EMCI1Wb_jvS7GmR-8" style="edgeStyle=orthogonalEdgeStyle;curved=1;rounded=0;orthogonalLoop=1;jettySize=auto;html=1;entryX=1;entryY=0.75;entryDx=0;entryDy=0;startArrow=classic;startFill=1;dashed=1;" edge="1" parent="1" source="cjM25EMCI1Wb_jvS7GmR-5" target="cjM25EMCI1Wb_jvS7GmR-6">
          <mxGeometry relative="1" as="geometry" />
        </mxCell>
        <mxCell id="cjM25EMCI1Wb_jvS7GmR-14" value="服务注册发现" style="edgeLabel;html=1;align=center;verticalAlign=middle;resizable=0;points=[];" vertex="1" connectable="0" parent="cjM25EMCI1Wb_jvS7GmR-8">
          <mxGeometry x="0.249" y="4" relative="1" as="geometry">
            <mxPoint x="5" y="9" as="offset" />
          </mxGeometry>
        </mxCell>
        <mxCell id="cjM25EMCI1Wb_jvS7GmR-19" style="edgeStyle=orthogonalEdgeStyle;curved=1;rounded=0;orthogonalLoop=1;jettySize=auto;html=1;entryX=0;entryY=0.5;entryDx=0;entryDy=0;startArrow=none;startFill=0;exitX=0.5;exitY=1;exitDx=0;exitDy=0;" edge="1" parent="1" source="cjM25EMCI1Wb_jvS7GmR-5" target="cjM25EMCI1Wb_jvS7GmR-9">
          <mxGeometry relative="1" as="geometry">
            <Array as="points">
              <mxPoint x="280" y="720" />
              <mxPoint x="380" y="720" />
              <mxPoint x="380" y="400" />
            </Array>
          </mxGeometry>
        </mxCell>
        <mxCell id="cjM25EMCI1Wb_jvS7GmR-5" value="small-fish" style="rounded=0;whiteSpace=wrap;html=1;" vertex="1" parent="1">
          <mxGeometry x="220" y="640" width="120" height="60" as="geometry" />
        </mxCell>
        <mxCell id="cjM25EMCI1Wb_jvS7GmR-6" value="Consul" style="rounded=0;whiteSpace=wrap;html=1;" vertex="1" parent="1">
          <mxGeometry x="30" y="470" width="80" height="250" as="geometry" />
        </mxCell>
        <mxCell id="cjM25EMCI1Wb_jvS7GmR-20" style="edgeStyle=orthogonalEdgeStyle;curved=1;rounded=0;orthogonalLoop=1;jettySize=auto;html=1;entryX=0.5;entryY=0;entryDx=0;entryDy=0;startArrow=none;startFill=0;exitX=1;exitY=0.5;exitDx=0;exitDy=0;" edge="1" parent="1" source="cjM25EMCI1Wb_jvS7GmR-9" target="cjM25EMCI1Wb_jvS7GmR-11">
          <mxGeometry relative="1" as="geometry" />
        </mxCell>
        <mxCell id="cjM25EMCI1Wb_jvS7GmR-9" value="rpc网关" style="ellipse;whiteSpace=wrap;html=1;aspect=fixed;" vertex="1" parent="1">
          <mxGeometry x="414" y="360" width="80" height="80" as="geometry" />
        </mxCell>
        <mxCell id="cjM25EMCI1Wb_jvS7GmR-10" value="Nacos" style="rounded=0;whiteSpace=wrap;html=1;" vertex="1" parent="1">
          <mxGeometry x="720" y="470" width="70" height="250" as="geometry" />
        </mxCell>
        <mxCell id="cjM25EMCI1Wb_jvS7GmR-21" style="edgeStyle=orthogonalEdgeStyle;curved=1;rounded=0;orthogonalLoop=1;jettySize=auto;html=1;entryX=0.5;entryY=0;entryDx=0;entryDy=0;startArrow=none;startFill=0;" edge="1" parent="1" source="cjM25EMCI1Wb_jvS7GmR-11" target="cjM25EMCI1Wb_jvS7GmR-12">
          <mxGeometry relative="1" as="geometry" />
        </mxCell>
        <mxCell id="cjM25EMCI1Wb_jvS7GmR-22" style="edgeStyle=orthogonalEdgeStyle;curved=1;rounded=0;orthogonalLoop=1;jettySize=auto;html=1;entryX=0;entryY=0.25;entryDx=0;entryDy=0;startArrow=classic;startFill=1;dashed=1;" edge="1" parent="1" source="cjM25EMCI1Wb_jvS7GmR-11" target="cjM25EMCI1Wb_jvS7GmR-10">
          <mxGeometry relative="1" as="geometry" />
        </mxCell>
        <mxCell id="cjM25EMCI1Wb_jvS7GmR-24" value="服务注册发现" style="edgeLabel;html=1;align=center;verticalAlign=middle;resizable=0;points=[];" vertex="1" connectable="0" parent="cjM25EMCI1Wb_jvS7GmR-22">
          <mxGeometry x="-0.3299" y="-3" relative="1" as="geometry">
            <mxPoint x="12" as="offset" />
          </mxGeometry>
        </mxCell>
        <mxCell id="cjM25EMCI1Wb_jvS7GmR-11" value="shrimp" style="rounded=0;whiteSpace=wrap;html=1;" vertex="1" parent="1">
          <mxGeometry x="470" y="490" width="120" height="60" as="geometry" />
        </mxCell>
        <mxCell id="cjM25EMCI1Wb_jvS7GmR-23" style="edgeStyle=orthogonalEdgeStyle;curved=1;rounded=0;orthogonalLoop=1;jettySize=auto;html=1;entryX=0;entryY=0.75;entryDx=0;entryDy=0;startArrow=classic;startFill=1;dashed=1;" edge="1" parent="1" source="cjM25EMCI1Wb_jvS7GmR-12" target="cjM25EMCI1Wb_jvS7GmR-10">
          <mxGeometry relative="1" as="geometry" />
        </mxCell>
        <mxCell id="cjM25EMCI1Wb_jvS7GmR-25" value="服务注册发现" style="edgeLabel;html=1;align=center;verticalAlign=middle;resizable=0;points=[];" vertex="1" connectable="0" parent="cjM25EMCI1Wb_jvS7GmR-23">
          <mxGeometry x="-0.2561" y="6" relative="1" as="geometry">
            <mxPoint x="7" as="offset" />
          </mxGeometry>
        </mxCell>
        <mxCell id="cjM25EMCI1Wb_jvS7GmR-12" value="sand" style="rounded=0;whiteSpace=wrap;html=1;" vertex="1" parent="1">
          <mxGeometry x="470" y="640" width="120" height="60" as="geometry" />
        </mxCell>
        <mxCell id="cjM25EMCI1Wb_jvS7GmR-16" style="edgeStyle=orthogonalEdgeStyle;curved=1;rounded=0;orthogonalLoop=1;jettySize=auto;html=1;entryX=0.5;entryY=0;entryDx=0;entryDy=0;startArrow=none;startFill=0;exitX=0.5;exitY=0.986;exitDx=0;exitDy=0;exitPerimeter=0;" edge="1" parent="1" source="cjM25EMCI1Wb_jvS7GmR-15" target="cjM25EMCI1Wb_jvS7GmR-3">
          <mxGeometry relative="1" as="geometry" />
        </mxCell>
        <mxCell id="cjM25EMCI1Wb_jvS7GmR-15" value="" style="verticalLabelPosition=bottom;verticalAlign=top;html=1;shadow=0;dashed=0;strokeWidth=1;shape=mxgraph.android.phone2;strokeColor=#000000;" vertex="1" parent="1">
          <mxGeometry x="394" y="100" width="40" height="70" as="geometry" />
        </mxCell>
        <mxCell id="cjM25EMCI1Wb_jvS7GmR-27" style="edgeStyle=orthogonalEdgeStyle;curved=1;rounded=0;orthogonalLoop=1;jettySize=auto;html=1;entryX=0.5;entryY=0;entryDx=0;entryDy=0;dashed=1;fontSize=17;startArrow=classic;startFill=1;" edge="1" parent="1" source="cjM25EMCI1Wb_jvS7GmR-26" target="cjM25EMCI1Wb_jvS7GmR-3">
          <mxGeometry relative="1" as="geometry" />
        </mxCell>
        <mxCell id="cjM25EMCI1Wb_jvS7GmR-28" value="域名解析" style="edgeLabel;html=1;align=center;verticalAlign=middle;resizable=0;points=[];fontSize=17;" vertex="1" connectable="0" parent="cjM25EMCI1Wb_jvS7GmR-27">
          <mxGeometry x="-0.6048" y="13" relative="1" as="geometry">
            <mxPoint y="1" as="offset" />
          </mxGeometry>
        </mxCell>
        <mxCell id="cjM25EMCI1Wb_jvS7GmR-26" value="big-fish.transnet.com" style="text;html=1;strokeColor=none;fillColor=none;align=center;verticalAlign=middle;whiteSpace=wrap;rounded=0;fontSize=17;" vertex="1" parent="1">
          <mxGeometry y="230" width="230" height="30" as="geometry" />
        </mxCell>
      </root>
    </mxGraphModel>
  </diagram>
</mxfile>
